<svg width="1080" height="1080" viewBox="0 0 1080 1080" fill="none" xmlns="http://www.w3.org/2000/svg">
<rect width="1080" height="1080" fill="#060842"/>
<path d="M546.001 750.5V682.066L546 677.54C546.002 677.54 546.003 682.066 546.001 682.066C546.001 682.066 549.5 518.326 549.5 425C578.861 425 625.09 425.146 625.09 425.146V677.54C625.09 701.991 618.17 718.69 601.362 731.214C584.555 743.738 570.389 750.5 546.001 750.5ZM549.905 337.604L633 330L632.011 368.019C631.682 376.667 629.375 383.674 625.09 389.042C621.136 394.409 614.05 398.882 603.834 402.46C603.834 402.46 570.56 416.141 549.5 425C549.5 390.813 549.905 337.604 549.905 337.604Z" fill="#FB5607"/>
<path d="M540.066 680.397H430.688C425.219 680.397 420.662 679.064 417.016 676.397C413.005 673.464 411 669.998 411 665.998V652H540.066V680.397Z" fill="#FB5607"/>
<path d="M540.073 716.078H470.128C464.099 716.078 459.074 714.711 455.054 711.976C450.632 708.968 448.421 705.413 448.421 701.31V686.953H540.073V716.078Z" fill="#FB5607"/>
<path d="M540.453 745.087C540.453 748.401 537.767 751.087 534.453 751.087H503.918C495.976 751.087 489.357 749.751 484.062 747.079C478.238 744.139 475.326 740.665 475.326 736.656V722.625H540.453V745.087Z" fill="#FB5607"/>
</svg>
